# xmcd
#
# Track frame offsets: 
#        182
#        8890
#        21015
#        33855
#        44310
#        57407
#        68527
#        78187
#        88267
#        99357
#
# Disc length: 1533 seconds
#
# Revision: 0
# Processed by: cddbd v1.5.1PL2 Copyright (c) Steve Scherf et al.
# Submitted via: ExactAudioCopy v0.95a5
#
DISCID=6d05fb0a
DTITLE=Ike and Tina Turner - So fine
DYEAR=1900
DGENRE=Soul
TTITLE0=My Babe
TTITLE1=So Fine
TTITLE2=I Better Get To Steppin
TTITLE3=Shake A Tail Feather
TTITLE4=We Need An Understanding
TTITLE5=You´re So Fine
TTITLE6=Here´s Your Heart
TTITLE7=Please Love Me
TTITLE8=Freedom Sound
TTITLE9=Crazy ´bout You Baby
EXTD=
EXTT0=
EXTT1=
EXTT2=
EXTT3=
EXTT4=
EXTT5=
EXTT6=
EXTT7=
EXTT8=
EXTT9=
PLAYORDER=
